<?xml version="1.0" encoding="UTF-8"?>
<svg id="Capa_2" data-name="Capa 2" xmlns="http://www.w3.org/2000/svg" viewBox="0 0 476 483.61">
  <defs>
    <style>
      .cls-1 {
        fill: #b27e49;
        stroke-width: 0px;
      }
    </style>
  </defs>
  <g id="Capa_1-2" data-name="Capa 1">
    <g>
      <path class="cls-1" d="M239.63,10.78c30.31,0,59.71,5.94,87.39,17.64,26.73,11.31,50.74,27.49,71.36,48.11,20.62,20.62,36.81,44.63,48.11,71.36,11.71,27.68,17.64,57.08,17.64,87.39s-5.94,59.71-17.64,87.39c-11.31,26.73-27.49,50.74-48.11,71.36-20.62,20.62-44.63,36.81-71.36,48.11-27.68,11.71-57.08,17.64-87.39,17.64s-59.71-5.94-87.39-17.64c-26.73-11.31-50.74-27.49-71.36-48.11-20.62-20.62-36.81-44.63-48.11-71.36-11.71-27.68-17.64-57.08-17.64-87.39s5.94-59.71,17.64-87.39c11.31-26.73,27.49-50.74,48.11-71.36,20.62-20.62,44.63-36.81,71.36-48.11,27.68-11.71,57.08-17.64,87.39-17.64M239.63,9.78C115.09,9.78,14.13,110.74,14.13,235.28s100.96,225.5,225.5,225.5,225.5-100.96,225.5-225.5S364.17,9.78,239.63,9.78h0Z"/>
      <path class="cls-1" d="M243.16,18.93c31.3,0,61.66,6.13,90.24,18.22,27.61,11.68,52.4,28.39,73.69,49.69,21.29,21.29,38.01,46.09,49.69,73.69,12.09,28.58,18.22,58.94,18.22,90.24s-6.13,61.66-18.22,90.24c-11.68,27.61-28.39,52.4-49.69,73.69s-46.09,38.01-73.69,49.69c-28.58,12.09-58.94,18.22-90.24,18.22s-61.66-6.13-90.24-18.22c-27.61-11.68-52.4-28.39-73.69-49.69-21.29-21.29-38.01-46.09-49.69-73.69-12.09-28.58-18.22-58.94-18.22-90.24s6.13-61.66,18.22-90.24c11.68-27.61,28.39-52.4,49.69-73.69,21.29-21.29,46.09-38.01,73.69-49.69,28.58-12.09,58.94-18.22,90.24-18.22M243.16,17.93C114.57,17.93,10.32,122.18,10.32,250.77s104.25,232.84,232.84,232.84,232.84-104.25,232.84-232.84S371.75,17.93,243.16,17.93h0Z"/>
      <path class="cls-1" d="M237.46,1c31.92,0,62.89,6.25,92.04,18.58,28.16,11.91,53.44,28.96,75.16,50.68s38.77,47,50.68,75.16c12.33,29.15,18.58,60.12,18.58,92.04s-6.25,62.89-18.58,92.04c-11.91,28.16-28.96,53.44-50.68,75.16-21.72,21.72-47,38.77-75.16,50.68-29.15,12.33-60.12,18.58-92.04,18.58s-62.89-6.25-92.04-18.58c-28.16-11.91-53.44-28.96-75.16-50.68-21.72-21.72-38.77-47-50.68-75.16C7.25,300.35,1,269.38,1,237.46s6.25-62.89,18.58-92.04c11.91-28.16,28.96-53.44,50.68-75.16,21.72-21.72,47-38.77,75.16-50.68C174.57,7.25,205.53,1,237.46,1M237.46,0C106.31,0,0,106.31,0,237.46s106.31,237.46,237.46,237.46,237.46-106.31,237.46-237.46S368.6,0,237.46,0h0Z"/>
    </g>
  </g>
</svg>