<?xml version="1.0" encoding="UTF-8"?>
<svg id="Capa_1" data-name="Capa 1" xmlns="http://www.w3.org/2000/svg" viewBox="0 0 1317.64 431.09">
  <defs>
    <style>
      .cls-1 {
        fill: rgba(255, 255, 255, .98);
      }

      .cls-1, .cls-2 {
        stroke-width: 0px;
      }

      .cls-2 {
        fill: #fff;
      }
    </style>
  </defs>
  <path class="cls-1" d="M1006.41,185.11c-1.66-.84-5.05-1.98-10.17-3.42-5.76-1.62-9.16-2.6-10.21-2.94-40.72-12.75-81.49-21.9-122.29-27.45-6.7-.91-14.01-1.58-21.95-2.01-13.5-.73-20.85-1.13-22.04-1.22-13.08-.92-26.89-.9-41.41.06-1.51.09-2.88.92-3.67,2.22-2.58,4.24-7.23,7.99-12.69,8.07-7.19.11-11.91-3.2-14.18-9.94-1.06-3.17-.83-6.48.69-9.92,1.24-2.78,3.5-4.86,6.77-6.25,4.85-2.04,9.71-1.36,14.57,2.05,2.91,2.04,5.05,5.29,6.42,9.75.2.63.79,1.06,1.45,1.05,13.07-.21,27.34-.22,42.8-.02,5.97.07,10.96.47,14.97,1.2,6.04,1.07,12.67.88,20.15,1.72,26.95,3.05,53.09,7.7,78.43,13.97,24.21,5.98,44.66,11.6,61.34,16.86,6.17,1.96,10.1,3.32,11.81,4.09.63.28,1.22.21,1.76-.21,1.54-1.17,2.42-2.44,2.64-3.8.09-.57-.12-1.15-.57-1.53-17.82-15.33-35.34-28.18-52.55-38.52-25.77-15.5-53.11-28.18-82.03-38.04-29.01-9.88-53.55-16.76-73.62-20.63-18.29-3.52-28-5.45-29.15-5.77-6.61-1.8-12.23-2.82-16.86-3.04-5.62-.28-11.22-1.22-16.8-2.83-4.89-1.4-10.3-1.17-16.02-1.66-1.22-.1-2.37.64-2.79,1.78-2.5,6.79-5.72,15.79-10.19,22.1-7.21,10.18-16.24,17.25-27.07,21.22-19.6,7.19-38.09,5.2-55.46-5.96-2.12-1.36-4.97-4.32-7.88-5.54-.61-.27-1.13-.66-1.53-1.17l-4.57-5.83c-1.25-1.61-3.53-2.03-5.28-.99-11.8,7.05-22.44,13.25-31.94,18.62-11.41,6.44-22.44,12.06-33.09,16.84-39.31,17.6-80.47,30.36-123.49,38.29-6.56,1.2-11.87,2.2-15.94,2.98-6.96,1.34-12.29,2.22-16,2.64-13.18,1.52-21.32,2.45-24.41,2.79-22,2.43-44.98,1.7-65.19,1.74-11.94.03-23.36-.69-34.26-2.14-11.98-1.61-23.49-2.75-34.52-3.42-.67-.04-1.24.18-1.7.67-2.24,2.41-4.97,7-8.35,8.24-3.26,1.17-6.65,1.41-10.19.71-8.83-1.74-12.54-12.56-9.08-20.21,1.72-3.82,5.11-6.49,10.17-8.03,8.16-2.5,16.61,4.91,17.97,12.71.13.71.51,1.24,1.15,1.59,4.28,2.22,10.44,1.66,13.97,2.12,16.93,2.24,26.83,3.5,29.71,3.77,4.17.4,9.96-.08,14.68.31,16.02,1.34,32.1,1.57,48.23.69,6.81-.38,11.93-.61,15.37-.71,6.35-.17,11.46-.52,15.33-1.05,19.53-2.67,35.52-5.07,47.98-7.19,3.83-.64,8.23-1.62,13.19-2.94,2.47-.64,5.45-1.23,8.91-1.76,3-.48,5.96-1.1,8.87-1.87,30.1-7.98,54.79-15.88,74.08-23.7,29.55-11.98,58.89-26.9,88.01-44.75,1.05-.63,1.3-1.5.75-2.6-1.96-4.01-3.6-8.52-4.93-13.53-1.33-4.95-1.96-9.66-1.89-14.13.46-29.67,19.61-52.47,48.38-58.76,2.7-.6,8.14-.7,16.34-.29,6.25.31,11.51,1.34,15.79,3.1,16.66,6.92,28.48,19.02,35.44,36.3,2.6,6.46,2.91,13.32,3.54,20.68.12,1.47,1.3,2.65,2.77,2.77,5.42.45,11.88,1.34,19.38,2.66,4.81.85,8.19,1.4,10.15,1.66,2.42.31,5.84.87,10.27,1.7,11.76,2.2,23.14,4.5,34.16,6.92,47.92,10.55,92.23,25.78,132.93,45.67,28.11,13.76,55.11,32.01,80.98,54.77.42.38.92.57,1.51.57.87-.01,1.8-.51,2.79-1.49.5-.5,1.11-.77,1.82-.8,6.77-.19,15.1,2.33,16.99,9.39,2.08,7.86-.55,16.48-8.72,19.25-4.99,1.69-9.69.84-14.11-2.56-3.77-2.91-5.68-7.67-5.72-14.3,0-.66-.29-1.13-.88-1.43ZM696.02,57.55c0-18.87-15.52-34.39-34.39-34.39s-34.39,15.52-34.39,34.39,15.52,34.39,34.39,34.39,34.39-15.52,34.39-34.39Z"/>
  <g>
    <path class="cls-2" d="M48.48,383.18v15.11c0,4.56,0,8.84.29,12.55,0,2.28,1.71,3.71,4.85,4.56l15.69,4.85.29,5.99c-11.98-.29-23.39-.29-34.51-.29s-22.81,0-34.51.29l-.57-5.99,17.11-5.13c2.28-.57,3.42-2,3.71-4.28,0-3.71.29-7.7.29-12.26v-141.17c0-3.71-.29-7.13-.29-10.27,0-2.28-1.14-3.99-3.42-4.85L.29,236.88l-.29-5.99c11.98.57,23.39.57,34.51.57s22.53,0,34.51-.57l.57,5.99-17.4,5.13c-2,.57-3.42,2-3.42,4.56-.29,3.14-.29,6.56-.29,10.55v126.05Z"/>
    <path class="cls-2" d="M130.86,270.81v139.74c.29,2.57,1.43,3.99,3.71,4.56l16.54,4.85.29,6.27c-11.69-.29-21.1-.29-28.52-.29s-16.83,0-28.8.29l-.57-5.99,17.11-5.13c2.28-.57,3.71-2,3.71-4.28.29-7.41.29-16.54.29-27.66v-112.93c0-9.13,0-16.83-.29-23.1,0-2.28-1.14-3.99-3.42-4.85l-17.11-5.42-.29-5.99c11.98.57,21.39.57,28.23.57,4.28,0,8.56,0,12.83-.57l116.93,146.3v-107.51c0-8.84,0-16.83-.29-23.1,0-2.28-1.43-3.71-3.71-4.56l-16.26-4.56-.29-6.56c11.69.57,21.39.57,28.8.57s16.83,0,28.52-.57l.57,5.99-17.68,5.42c-2,.86-3.14,2.57-3.42,4.85,0,6.27-.29,13.97-.29,23.1v155.71l-11.69,1.14-124.91-156.28Z"/>
    <path class="cls-2" d="M384.11,427.1l-62.17-167.97c-2-5.99-4.28-10.55-5.99-12.83-2-2.57-4.85-4.28-8.56-5.42l-12.83-3.99-.29-5.99c9.13.57,19.96.57,32.23.57s25.67,0,39.07-.57l.57,5.99-13.12,3.99c-2,.29-3.14,1.14-3.99,2-.86.86-1.43,2-1.43,3.71,0,2,.57,4.28,1.43,7.41,1.14,3.14,2.57,7.13,4.28,11.98l44.77,125.48,49.05-125.2c2-5.13,3.42-9.13,4.56-12.26,1.14-3.14,1.71-5.7,1.71-7.41s-.57-3.14-1.43-3.71c-.86-.86-2.28-1.43-3.99-2l-12.83-3.42-.29-6.56c9.98.57,20.25.57,30.51.57s20.25,0,29.66-.57l.57,5.99-13.97,4.56c-3.14.86-5.7,2.57-7.41,4.56-1.71,2.28-3.99,6.56-6.56,13.12l-69.58,166.83-13.97,1.14Z"/>
    <path class="cls-2" d="M550.34,383.18v15.11c0,4.56,0,8.84.29,12.55,0,2.28,1.71,3.71,4.85,4.56l15.69,4.85.29,5.99c-11.98-.29-23.39-.29-34.51-.29s-22.81,0-34.51.29l-.57-5.99,17.11-5.13c2.28-.57,3.42-2,3.71-4.28,0-3.71.29-7.7.29-12.26v-141.17c0-3.71-.29-7.13-.29-10.27,0-2.28-1.14-3.99-3.42-4.85l-17.11-5.42-.29-5.99c11.98.57,23.39.57,34.51.57s22.53,0,34.51-.57l.57,5.99-17.4,5.13c-2,.57-3.42,2-3.42,4.56-.29,3.14-.29,6.56-.29,10.55v126.05Z"/>
    <path class="cls-2" d="M672.92,425.96c-11.41,0-24.24,0-37.93.29l-.57-5.99,20.53-5.99c2.28-.57,3.42-2,3.71-4.28,0-7.13.29-15.97.29-27.09v-138.88h-49.34l-12.26,37.07-5.7.86-3.42-49.91.86-1.14c22.81.57,44.77.57,65.59.57h37.36c20.53,0,42.49,0,65.59-.57l.86,1.14-8.56,49.05-5.7.86-8.84-37.93h-49.34v138.88c0,11.12.29,19.96.29,27.09.29,2.28,1.43,3.71,3.71,4.28l20.53,5.99.29,5.99c-14.26-.29-27.09-.29-37.93-.29Z"/>
    <path class="cls-2" d="M808.18,231.46h33.94c20.82,0,42.78,0,65.88-.57l.57,1.14-7.99,43.06-5.42,1.14-8.84-32.23h-64.17v76.43h12.55c9.7,0,20.53,0,32.23-.29,2.57,0,3.99-1.14,4.85-3.42l4.85-18.82,7.7-.29c-.29,12.83-.57,22.53-.57,28.8s.29,15.4.57,28.23l-7.7.57-4.85-18.82c-.86-2.57-2.28-3.71-4.56-3.99-11.98,0-22.81-.29-32.51-.29h-12.55v50.76c0,10.27,0,20.53.29,30.51h66.73l17.11-35.36,6.27-1.14-3.14,48.48-.86.86c-24.24-.29-46.49-.29-66.73-.29h-33.08c-11.12,0-22.81,0-34.51.29l-.57-5.99,17.11-5.13c2.28-.57,3.42-2,3.71-4.28,0-3.71.29-7.7.29-12.26v-141.17c0-3.71-.29-7.13-.29-10.27,0-2.28-1.14-3.99-3.42-4.85l-17.11-5.42-.29-5.99c11.98.57,23.39.57,34.51.57Z"/>
    <path class="cls-2" d="M1084.54,279.66l-5.7.86-10.27-36.79c-11.41-2.85-21.96-4.28-31.09-4.28-22.81,0-40.78,7.99-53.61,23.96-13.12,15.69-19.68,36.5-19.68,61.6,0,27.38,7.41,48.77,22.24,65.02,14.83,16.26,35.65,24.24,61.89,24.24,14.54,0,30.23-2.85,46.49-8.56l1.71,6.27c-18.25,12.55-39.07,19.11-62.17,19.11-29.94,0-54.19-9.13-72.72-27.66-18.54-18.25-27.95-42.21-27.95-72.15,0-31.94,10.27-57.04,30.8-75.57,20.25-18.54,46.77-27.95,79.57-27.95,15.69,0,31.66,2,48.2,5.7l.86,1.14-8.56,45.06Z"/>
    <path class="cls-2" d="M1167.91,329.56v53.61c0,11.12,0,20.25.29,27.66,0,2.57,1.14,3.99,3.42,4.56l15.69,4.85.29,5.99c-11.12-.29-21.96-.29-33.08-.29s-22.53,0-34.51.29l-.57-5.99,17.11-5.13c2.28-.57,3.71-2,3.71-4.28.29-7.41.29-16.54.29-27.66v-112.93c0-9.13,0-16.83-.29-23.1,0-2.28-1.14-3.99-3.42-4.85l-17.11-5.42-.29-5.99c11.98.57,23.39.57,34.51.57s22.24,0,33.08-.57l.57,5.99-15.97,4.85c-2.28.57-3.42,2-3.42,4.56-.29,6.56-.29,14.54-.29,23.39v47.34h101.24v-47.34c0-8.84,0-16.83-.29-23.39,0-2.57-1.14-3.99-3.42-4.56l-15.69-4.85-.29-5.99c11.41.57,22.53.57,33.65.57s22.53,0,33.94-.57l.57,5.99-17.4,5.42c-2.28.86-3.42,2.57-3.42,4.85-.29,6.27-.29,13.97-.29,23.1v112.93c0,11.12,0,20.25.29,27.66,0,2.28,1.43,3.71,3.71,4.28l16.83,5.13.29,5.99c-12.26-.29-23.96-.29-35.08-.29s-21.96,0-32.51.29l-.57-5.99,15.97-4.85c2.28-.57,3.42-2,3.42-4.56.29-7.41.29-16.54.29-27.66v-53.61h-101.24Z"/>
  </g>
</svg>