<?xml version="1.0" encoding="UTF-8" standalone="no"?>
<!DOCTYPE svg PUBLIC "-//W3C//DTD SVG 1.1//EN" "http://www.w3.org/Graphics/SVG/1.1/DTD/svg11.dtd">
<svg width="100%" height="100%" viewBox="0 0 1024 1024" version="1.1" xmlns="http://www.w3.org/2000/svg" xmlns:xlink="http://www.w3.org/1999/xlink" xml:space="preserve" xmlns:serif="http://www.serif.com/" style="fill-rule:evenodd;clip-rule:evenodd;stroke-linejoin:round;stroke-miterlimit:2;">
    <g transform="matrix(1,0,0,1,7.42191,0.607824)">
        <g id="Capa1">
            <circle cx="504.578" cy="511.392" r="504.259" style="fill:rgb(7,12,22);"/>
        </g>
    </g>
    <g transform="matrix(1,0,0,1,0,57.4558)">
        <path d="M677.76,440.06C676.967,439.66 675.35,439.117 672.91,438.43C670.163,437.657 668.54,437.19 668.04,437.03C648.62,430.95 629.18,426.587 609.72,423.94C606.527,423.507 603.037,423.187 599.25,422.98C592.81,422.633 589.307,422.44 588.74,422.4C582.5,421.96 575.917,421.97 568.99,422.43C568.27,422.474 567.615,422.871 567.24,423.49C566.01,425.51 563.79,427.3 561.19,427.34C557.763,427.393 555.51,425.813 554.43,422.6C553.923,421.087 554.033,419.51 554.76,417.87C555.353,416.543 556.43,415.55 557.99,414.89C560.303,413.917 562.62,414.243 564.94,415.87C566.327,416.843 567.347,418.393 568,420.52C568.093,420.821 568.375,421.025 568.69,421.02C574.923,420.92 581.727,420.917 589.1,421.01C591.947,421.043 594.327,421.233 596.24,421.58C599.12,422.09 602.28,422 605.85,422.4C618.703,423.853 631.17,426.073 643.25,429.06C654.797,431.913 664.547,434.593 672.5,437.1C675.44,438.033 677.317,438.683 678.13,439.05C678.43,439.183 678.71,439.15 678.97,438.95C679.703,438.39 680.123,437.787 680.23,437.14C680.274,436.868 680.171,436.591 679.96,436.41C671.46,429.097 663.107,422.973 654.9,418.04C642.613,410.647 629.573,404.6 615.78,399.9C601.947,395.187 590.243,391.907 580.67,390.06C571.95,388.38 567.317,387.463 566.77,387.31C563.617,386.45 560.937,385.967 558.73,385.86C556.05,385.727 553.38,385.277 550.72,384.51C548.39,383.84 545.81,383.95 543.08,383.72C542.496,383.674 541.949,384.023 541.75,384.57C540.56,387.81 539.02,392.1 536.89,395.11C533.45,399.963 529.147,403.337 523.98,405.23C514.633,408.657 505.817,407.71 497.53,402.39C496.52,401.74 495.16,400.33 493.77,399.75C493.477,399.623 493.233,399.437 493.04,399.19L490.86,396.41C490.265,395.644 489.177,395.441 488.34,395.94C482.713,399.3 477.637,402.26 473.11,404.82C467.67,407.893 462.41,410.57 457.33,412.85C438.583,421.243 418.953,427.33 398.44,431.11C395.313,431.683 392.78,432.157 390.84,432.53C387.52,433.17 384.977,433.59 383.21,433.79C376.923,434.517 373.043,434.96 371.57,435.12C361.08,436.28 350.12,435.93 340.48,435.95C334.787,435.963 329.34,435.623 324.14,434.93C318.427,434.163 312.94,433.62 307.68,433.3C307.36,433.28 307.09,433.387 306.87,433.62C305.8,434.77 304.5,436.96 302.89,437.55C301.337,438.11 299.717,438.223 298.03,437.89C293.82,437.06 292.05,431.9 293.7,428.25C294.52,426.43 296.137,425.153 298.55,424.42C302.44,423.23 306.47,426.76 307.12,430.48C307.18,430.82 307.363,431.073 307.67,431.24C309.71,432.3 312.65,432.03 314.33,432.25C322.403,433.317 327.127,433.917 328.5,434.05C330.49,434.24 333.25,434.01 335.5,434.2C343.14,434.84 350.807,434.95 358.5,434.53C361.747,434.35 364.19,434.237 365.83,434.19C368.857,434.11 371.293,433.943 373.14,433.69C382.453,432.417 390.08,431.273 396.02,430.26C397.847,429.953 399.943,429.487 402.31,428.86C403.49,428.553 404.907,428.273 406.56,428.02C407.993,427.793 409.403,427.497 410.79,427.13C425.143,423.323 436.92,419.557 446.12,415.83C460.213,410.117 474.203,403.003 488.09,394.49C488.59,394.19 488.71,393.777 488.45,393.25C487.517,391.337 486.733,389.187 486.1,386.8C485.467,384.44 485.167,382.193 485.2,380.06C485.42,365.91 494.55,355.04 508.27,352.04C509.557,351.753 512.153,351.707 516.06,351.9C519.04,352.047 521.55,352.54 523.59,353.38C531.537,356.68 537.17,362.45 540.49,370.69C541.73,373.77 541.88,377.04 542.18,380.55C542.236,381.251 542.799,381.814 543.5,381.87C546.087,382.083 549.167,382.507 552.74,383.14C555.033,383.547 556.647,383.81 557.58,383.93C558.733,384.077 560.367,384.347 562.48,384.74C568.087,385.787 573.517,386.887 578.77,388.04C601.623,393.073 622.753,400.333 642.16,409.82C655.567,416.38 668.44,425.087 680.78,435.94C680.98,436.12 681.22,436.21 681.5,436.21C681.913,436.203 682.357,435.967 682.83,435.5C683.07,435.26 683.36,435.133 683.7,435.12C686.93,435.03 690.9,436.23 691.8,439.6C692.79,443.35 691.54,447.46 687.64,448.78C685.26,449.587 683.017,449.18 680.91,447.56C679.11,446.173 678.2,443.9 678.18,440.74C678.18,440.427 678.04,440.2 677.76,440.06ZM529.74,379.23C529.74,370.233 522.337,362.83 513.34,362.83C504.343,362.83 496.94,370.233 496.94,379.23C496.94,388.227 504.343,395.63 513.34,395.63C522.337,395.63 529.74,388.227 529.74,379.23Z" style="fill:rgb(32,105,245);fill-opacity:0.98;fill-rule:nonzero;"/>
        <g transform="matrix(1,0,0,1,-26.9318,32.1886)">
            <g transform="matrix(136,0,0,136,218.223,522.726)">
                <path d="M0.218,-0.15C0.218,-0.13 0.218,-0.113 0.218,-0.097C0.218,-0.081 0.218,-0.066 0.219,-0.053C0.219,-0.045 0.225,-0.04 0.236,-0.037L0.291,-0.02L0.292,0.001C0.25,0 0.21,-0 0.171,-0C0.132,-0 0.091,0 0.05,0.001L0.048,-0.02L0.108,-0.038C0.116,-0.04 0.12,-0.045 0.121,-0.053C0.121,-0.066 0.122,-0.08 0.122,-0.096C0.122,-0.113 0.122,-0.13 0.122,-0.15L0.122,-0.546C0.122,-0.563 0.122,-0.577 0.122,-0.591C0.122,-0.604 0.121,-0.616 0.121,-0.627C0.121,-0.635 0.117,-0.641 0.109,-0.644L0.049,-0.663L0.048,-0.684C0.09,-0.682 0.13,-0.682 0.169,-0.682C0.208,-0.682 0.248,-0.682 0.29,-0.684L0.292,-0.663L0.231,-0.645C0.224,-0.643 0.219,-0.638 0.219,-0.629C0.218,-0.618 0.218,-0.606 0.218,-0.592C0.218,-0.579 0.218,-0.564 0.218,-0.548L0.218,-0.15Z" style="fill:white;fill-rule:nonzero;"/>
            </g>
            <g transform="matrix(136,0,0,136,264.442,522.726)">
                <path d="M0.167,-0.544L0.167,-0.15C0.167,-0.111 0.167,-0.08 0.167,-0.054C0.168,-0.045 0.172,-0.04 0.18,-0.038L0.238,-0.021L0.239,0.001C0.198,0 0.165,-0 0.139,-0C0.113,-0 0.08,0 0.038,0.001L0.036,-0.02L0.096,-0.038C0.104,-0.04 0.109,-0.045 0.109,-0.053C0.11,-0.079 0.11,-0.111 0.11,-0.15L0.11,-0.546C0.11,-0.578 0.11,-0.605 0.109,-0.627C0.109,-0.635 0.105,-0.641 0.097,-0.644L0.037,-0.663L0.036,-0.684C0.078,-0.682 0.111,-0.682 0.135,-0.682C0.15,-0.682 0.165,-0.682 0.18,-0.684L0.59,-0.171L0.59,-0.548C0.59,-0.579 0.59,-0.607 0.589,-0.629C0.589,-0.637 0.584,-0.642 0.576,-0.645L0.519,-0.661L0.518,-0.684C0.559,-0.682 0.593,-0.682 0.619,-0.682C0.645,-0.682 0.678,-0.682 0.719,-0.684L0.721,-0.663L0.659,-0.644C0.652,-0.641 0.648,-0.635 0.647,-0.627C0.647,-0.605 0.646,-0.578 0.646,-0.546L0.646,-0L0.605,0.004L0.167,-0.544Z" style="fill:white;fill-rule:nonzero;"/>
            </g>
            <g transform="matrix(136,0,0,136,366.309,522.726)">
                <path d="M0.306,0.004L0.088,-0.585C0.081,-0.606 0.073,-0.622 0.067,-0.63C0.06,-0.639 0.05,-0.645 0.037,-0.649L-0.008,-0.663L-0.009,-0.684C0.023,-0.682 0.061,-0.682 0.104,-0.682C0.148,-0.682 0.194,-0.682 0.241,-0.684L0.243,-0.663L0.197,-0.649C0.19,-0.648 0.186,-0.645 0.183,-0.642C0.18,-0.639 0.178,-0.635 0.178,-0.629C0.178,-0.622 0.18,-0.614 0.183,-0.603C0.187,-0.592 0.192,-0.578 0.198,-0.561L0.355,-0.121L0.527,-0.56C0.534,-0.578 0.539,-0.592 0.543,-0.603C0.547,-0.614 0.549,-0.623 0.549,-0.629C0.549,-0.635 0.547,-0.64 0.544,-0.642C0.541,-0.645 0.536,-0.647 0.53,-0.649L0.485,-0.661L0.484,-0.684C0.519,-0.682 0.555,-0.682 0.591,-0.682C0.627,-0.682 0.662,-0.682 0.695,-0.684L0.697,-0.663L0.648,-0.647C0.637,-0.644 0.628,-0.638 0.622,-0.631C0.616,-0.623 0.608,-0.608 0.599,-0.585L0.355,-0L0.306,0.004Z" style="fill:white;fill-rule:nonzero;"/>
            </g>
            <g transform="matrix(136,0,0,136,457.551,522.726)">
                <path d="M0.218,-0.15C0.218,-0.13 0.218,-0.113 0.218,-0.097C0.218,-0.081 0.218,-0.066 0.219,-0.053C0.219,-0.045 0.225,-0.04 0.236,-0.037L0.291,-0.02L0.292,0.001C0.25,0 0.21,-0 0.171,-0C0.132,-0 0.091,0 0.05,0.001L0.048,-0.02L0.108,-0.038C0.116,-0.04 0.12,-0.045 0.121,-0.053C0.121,-0.066 0.122,-0.08 0.122,-0.096C0.122,-0.113 0.122,-0.13 0.122,-0.15L0.122,-0.546C0.122,-0.563 0.122,-0.577 0.122,-0.591C0.122,-0.604 0.121,-0.616 0.121,-0.627C0.121,-0.635 0.117,-0.641 0.109,-0.644L0.049,-0.663L0.048,-0.684C0.09,-0.682 0.13,-0.682 0.169,-0.682C0.208,-0.682 0.248,-0.682 0.29,-0.684L0.292,-0.663L0.231,-0.645C0.224,-0.643 0.219,-0.638 0.219,-0.629C0.218,-0.618 0.218,-0.606 0.218,-0.592C0.218,-0.579 0.218,-0.564 0.218,-0.548L0.218,-0.15Z" style="fill:white;fill-rule:nonzero;"/>
            </g>
            <g transform="matrix(136,0,0,136,503.77,522.726)">
                <path d="M0.308,-0C0.268,-0 0.223,0 0.175,0.001L0.173,-0.02L0.245,-0.041C0.253,-0.043 0.257,-0.048 0.258,-0.056C0.258,-0.081 0.259,-0.112 0.259,-0.151L0.259,-0.638L0.086,-0.638L0.043,-0.508L0.023,-0.505L0.011,-0.68L0.014,-0.684C0.094,-0.682 0.171,-0.682 0.244,-0.682L0.375,-0.682C0.447,-0.682 0.524,-0.682 0.605,-0.684L0.608,-0.68L0.578,-0.508L0.558,-0.505L0.527,-0.638L0.354,-0.638L0.354,-0.151C0.354,-0.112 0.355,-0.081 0.355,-0.056C0.356,-0.048 0.36,-0.043 0.368,-0.041L0.44,-0.02L0.441,0.001C0.391,0 0.346,-0 0.308,-0Z" style="fill:rgb(32,105,245);fill-rule:nonzero;"/>
            </g>
            <g transform="matrix(136,0,0,136,587.176,522.726)">
                <path d="M0.169,-0.682L0.288,-0.682C0.361,-0.682 0.438,-0.682 0.519,-0.684L0.521,-0.68L0.493,-0.529L0.474,-0.525L0.443,-0.638L0.218,-0.638L0.218,-0.37L0.262,-0.37C0.296,-0.37 0.334,-0.37 0.375,-0.371C0.384,-0.371 0.389,-0.375 0.392,-0.383L0.409,-0.449L0.436,-0.45C0.435,-0.405 0.434,-0.371 0.434,-0.349C0.434,-0.328 0.435,-0.295 0.436,-0.25L0.409,-0.248L0.392,-0.314C0.389,-0.323 0.384,-0.327 0.376,-0.328C0.334,-0.328 0.296,-0.329 0.262,-0.329L0.218,-0.329L0.218,-0.151C0.218,-0.115 0.218,-0.079 0.219,-0.044L0.453,-0.044L0.513,-0.168L0.535,-0.172L0.524,-0.002L0.521,0.001C0.436,0 0.358,-0 0.287,-0L0.171,-0C0.132,-0 0.091,0 0.05,0.001L0.048,-0.02L0.108,-0.038C0.116,-0.04 0.12,-0.045 0.121,-0.053C0.121,-0.066 0.122,-0.08 0.122,-0.096C0.122,-0.113 0.122,-0.13 0.122,-0.15L0.122,-0.546C0.122,-0.563 0.122,-0.577 0.122,-0.591C0.122,-0.604 0.121,-0.616 0.121,-0.627C0.121,-0.635 0.117,-0.641 0.109,-0.644L0.049,-0.663L0.048,-0.684C0.09,-0.682 0.13,-0.682 0.169,-0.682Z" style="fill:white;fill-rule:nonzero;"/>
            </g>
            <g transform="matrix(136,0,0,136,663.477,522.726)">
                <path d="M0.577,-0.513L0.557,-0.51L0.521,-0.639C0.481,-0.649 0.444,-0.654 0.412,-0.654C0.332,-0.654 0.269,-0.626 0.224,-0.57C0.178,-0.515 0.155,-0.442 0.155,-0.354C0.155,-0.258 0.181,-0.183 0.233,-0.126C0.285,-0.069 0.358,-0.041 0.45,-0.041C0.501,-0.041 0.556,-0.051 0.613,-0.071L0.619,-0.049C0.555,-0.005 0.482,0.018 0.401,0.018C0.296,0.018 0.211,-0.014 0.146,-0.079C0.081,-0.143 0.048,-0.227 0.048,-0.332C0.048,-0.444 0.084,-0.532 0.156,-0.597C0.227,-0.662 0.32,-0.695 0.435,-0.695C0.49,-0.695 0.546,-0.688 0.604,-0.675L0.607,-0.671L0.577,-0.513Z" style="fill:white;fill-rule:nonzero;"/>
            </g>
            <g transform="matrix(136,0,0,136,752.063,522.726)">
                <path d="M0.218,-0.338L0.218,-0.15C0.218,-0.111 0.218,-0.079 0.219,-0.053C0.219,-0.044 0.223,-0.039 0.231,-0.037L0.286,-0.02L0.287,0.001C0.248,0 0.21,-0 0.171,-0C0.132,-0 0.092,0 0.05,0.001L0.048,-0.02L0.108,-0.038C0.116,-0.04 0.121,-0.045 0.121,-0.053C0.122,-0.079 0.122,-0.111 0.122,-0.15L0.122,-0.546C0.122,-0.578 0.122,-0.605 0.121,-0.627C0.121,-0.635 0.117,-0.641 0.109,-0.644L0.049,-0.663L0.048,-0.684C0.09,-0.682 0.13,-0.682 0.169,-0.682C0.208,-0.682 0.247,-0.682 0.285,-0.684L0.287,-0.663L0.231,-0.646C0.223,-0.644 0.219,-0.639 0.219,-0.63C0.218,-0.607 0.218,-0.579 0.218,-0.548L0.218,-0.382L0.573,-0.382L0.573,-0.548C0.573,-0.579 0.573,-0.607 0.572,-0.63C0.572,-0.639 0.568,-0.644 0.56,-0.646L0.505,-0.663L0.504,-0.684C0.544,-0.682 0.583,-0.682 0.622,-0.682C0.661,-0.682 0.701,-0.682 0.741,-0.684L0.743,-0.663L0.682,-0.644C0.674,-0.641 0.67,-0.635 0.67,-0.627C0.669,-0.605 0.669,-0.578 0.669,-0.546L0.669,-0.15C0.669,-0.111 0.669,-0.079 0.67,-0.053C0.67,-0.045 0.675,-0.04 0.683,-0.038L0.742,-0.02L0.743,0.001C0.7,0 0.659,-0 0.62,-0C0.581,-0 0.543,0 0.506,0.001L0.504,-0.02L0.56,-0.037C0.568,-0.039 0.572,-0.044 0.572,-0.053C0.573,-0.079 0.573,-0.111 0.573,-0.15L0.573,-0.338L0.218,-0.338Z" style="fill:white;fill-rule:nonzero;"/>
            </g>
        </g>
    </g>
</svg>
