<?xml version="1.0" encoding="UTF-8" standalone="no"?>
<!DOCTYPE svg PUBLIC "-//W3C//DTD SVG 1.1//EN" "http://www.w3.org/Graphics/SVG/1.1/DTD/svg11.dtd">
<svg xmlns="http://www.w3.org/2000/svg" version="1.1" viewBox="0.00 0.00 1721.00 1663.00">
<path fill="#B27E49" d="
  M 1498.04 1105.53
  Q 1500.05 1106.66 1499.87 1104.36
  Q 1499.50 1099.75 1499.50 1095.75
  Q 1499.45 801.08 1499.50 568.13
  Q 1499.50 566.74 1498.13 567.00
  L 623.95 731.51
  A 2.25 2.24 -5.7 0 0 622.12 733.74
  Q 622.14 736.32 622.24 738.94
  Q 622.39 742.66 622.34 1272.25
  C 622.34 1290.52 622.97 1309.49 622.84 1327.80
  Q 622.80 1334.30 622.03 1341.18
  Q 621.38 1347.05 620.64 1354.53
  Q 617.30 1388.37 606.12 1419.95
  Q 581.98 1488.13 528.55 1536.81
  Q 494.98 1567.40 454.12 1585.78
  Q 391.15 1614.09 321.44 1610.62
  Q 315.33 1610.32 307.83 1609.36
  C 302.32 1608.66 295.44 1608.07 289.81 1607.08
  Q 207.92 1592.58 146.94 1538.24
  Q 135.58 1528.11 123.90 1515.11
  Q 116.71 1507.11 110.94 1499.53
  Q 70.01 1445.87 56.95 1379.47
  Q 55.86 1373.91 54.84 1365.99
  C 53.95 1359.18 53.14 1353.69 52.69 1347.98
  Q 50.11 1314.76 55.32 1281.84
  Q 62.85 1234.30 85.20 1192.21
  Q 104.75 1155.38 133.50 1126.50
  Q 144.29 1115.65 152.01 1109.01
  Q 164.27 1098.47 181.35 1087.05
  C 188.06 1082.57 194.55 1079.16 201.47 1075.10
  Q 204.46 1073.35 209.77 1070.73
  Q 273.49 1039.26 345.26 1040.71
  Q 354.81 1040.90 378.38 1043.85
  Q 384.58 1044.62 391.55 1046.12
  Q 392.41 1046.30 400.29 1047.95
  Q 404.75 1048.88 409.00 1050.01
  Q 427.62 1054.92 445.52 1062.28
  Q 474.79 1074.31 500.74 1092.41
  C 503.47 1094.32 507.12 1097.48 509.72 1099.11
  Q 511.33 1100.12 514.15 1102.61
  Q 515.96 1104.21 518.78 1105.84
  A 0.91 0.90 -78.0 0 0 520.13 1104.96
  Q 519.72 1101.08 519.72 1096.75
  Q 519.65 1061.75 519.66 717.75
  C 519.67 707.47 518.81 692.07 519.23 679.19
  Q 519.67 665.51 519.67 660.65
  Q 519.70 549.26 519.61 326.25
  Q 519.60 318.78 521.43 311.48
  Q 523.25 304.17 527.04 297.86
  Q 535.87 283.15 552.33 276.33
  Q 554.16 275.57 560.08 273.99
  Q 562.91 273.23 567.98 272.24
  Q 572.02 271.45 578.53 270.04
  Q 736.03 236.02 988.24 181.49
  Q 1002.52 178.40 1023.30 173.94
  Q 1097.82 157.93 1172.57 141.75
  Q 1242.40 126.64 1298.46 114.31
  Q 1302.80 113.36 1309.21 112.10
  Q 1311.36 111.68 1319.95 109.74
  Q 1346.38 103.78 1360.37 100.93
  Q 1379.48 97.03 1395.09 93.42
  Q 1396.56 93.08 1466.29 77.92
  Q 1508.30 68.79 1542.22 61.68
  C 1556.39 58.71 1572.75 63.58 1583.42 72.67
  Q 1597.31 84.51 1600.97 101.57
  Q 1602.16 107.13 1602.16 121.44
  Q 1602.15 299.35 1602.16 477.25
  Q 1602.17 481.08 1602.71 497.23
  Q 1603.00 505.99 1602.66 514.75
  Q 1602.16 527.56 1602.16 532.26
  Q 1602.15 938.60 1602.16 1273.75
  Q 1602.16 1281.64 1602.45 1293.75
  Q 1602.75 1306.33 1602.85 1322.50
  Q 1602.91 1331.61 1602.03 1339.91
  Q 1600.82 1351.45 1600.80 1351.63
  Q 1595.12 1413.30 1564.54 1467.09
  Q 1559.51 1475.95 1554.01 1484.06
  Q 1506.95 1553.52 1431.28 1586.96
  Q 1371.11 1613.55 1304.03 1610.73
  Q 1297.14 1610.44 1289.02 1609.52
  C 1281.23 1608.63 1275.42 1608.09 1269.05 1606.97
  Q 1194.05 1593.70 1135.48 1545.74
  Q 1119.34 1532.53 1103.48 1514.77
  Q 1096.17 1506.59 1090.52 1499.16
  Q 1050.17 1446.06 1037.06 1380.68
  Q 1035.69 1373.86 1034.86 1367.29
  Q 1033.22 1354.26 1033.16 1353.79
  Q 1030.96 1335.29 1031.96 1313.76
  Q 1033.41 1282.38 1041.37 1252.61
  Q 1060.35 1181.60 1111.52 1128.27
  Q 1143.15 1095.30 1183.45 1074.00
  Q 1249.90 1038.89 1326.26 1040.74
  Q 1335.56 1040.97 1359.42 1043.97
  C 1365.93 1044.79 1371.39 1046.11 1379.02 1047.69
  Q 1385.88 1049.11 1391.79 1050.87
  Q 1403.33 1054.31 1404.41 1054.66
  Q 1451.47 1069.74 1490.97 1100.06
  Q 1491.43 1100.41 1494.41 1103.07
  Q 1495.69 1104.21 1498.04 1105.53
  Z
  M 622.34 626.65
  A 0.77 0.77 0.0 0 0 623.25 627.41
  L 1498.85 462.63
  A 0.77 0.77 0.0 0 0 1499.48 461.87
  L 1499.48 176.74
  A 0.77 0.77 0.0 0 0 1498.55 175.99
  L 622.95 364.89
  A 0.77 0.77 0.0 0 0 622.34 365.64
  L 622.34 626.65
  Z
  M 519.64 1325.98
  A 182.67 182.67 0.0 0 0 336.97 1143.31
  A 182.67 182.67 0.0 0 0 154.30 1325.98
  A 182.67 182.67 0.0 0 0 336.97 1508.65
  A 182.67 182.67 0.0 0 0 519.64 1325.98
  Z
  M 1499.52 1325.98
  A 182.67 182.67 0.0 0 0 1316.85 1143.31
  A 182.67 182.67 0.0 0 0 1134.18 1325.98
  A 182.67 182.67 0.0 0 0 1316.85 1508.65
  A 182.67 182.67 0.0 0 0 1499.52 1325.98
  Z"
/>
</svg>
